<?xml version="1.0" encoding="utf-8"?>
<!-- Generator: Adobe Illustrator 24.1.2, SVG Export Plug-In . SVG Version: 6.00 Build 0)  -->
<svg version="1.1" id="Layer_1" xmlns="http://www.w3.org/2000/svg" xmlns:xlink="http://www.w3.org/1999/xlink" x="0px" y="0px"
	 viewBox="0 0 67.3 84.1" style="enable-background:new 0 0 67.3 84.1;" xml:space="preserve">
<style type="text/css">
	.st0{fill:#FFFFFF;stroke:#000000;stroke-miterlimit:10;}
</style>
<path class="st0" d="M1.5,13c0-4,1-7,3-9s5-3,8.9-3h40.5c3.9,0,6.9,1,8.9,3c2,2,3,5,3,9v57.9c0,4-1,7-3,9c-2,2-4.9,3-8.9,3H13.3
	c-3.9,0-6.9-1-8.9-3c-2-2-3-5-3-9L1.5,13z M9.2,75.1c1.2,1.1,2.8,1.7,4.5,1.5h39.9c2.9,0.4,5.6-1.7,6-4.6c0.1-0.4,0.1-0.9,0-1.3
	V13.1c0.4-2.9-1.7-5.6-4.6-6C54.5,7,54,7,53.6,7.1H13.7c-2.9-0.4-5.6,1.7-6,4.6c-0.1,0.5-0.1,0.9,0,1.4v57.6
	C7.6,72.3,8.1,73.9,9.2,75.1z M14.2,49.2c-0.1-1.4,0.4-2.8,1.3-3.8c1.1-0.9,2.4-1.4,3.8-1.3h28.6c3.4,0,5.1,1.7,5.1,5.1v18.2h-2.7
	l-7.6-8.8c-0.3-0.4-0.7-0.7-1.2-0.9c-0.5-0.2-0.9-0.2-1.4-0.2c-1,0-1.9,0.4-2.7,1.1l-7.8,6.9l-3.1-2.9c-0.6-0.6-1.4-1-2.3-1
	c-0.9,0-1.7,0.4-2.3,1l-5,5.1h-2.7L14.2,49.2z M14.9,36.9c-0.4-0.4-0.6-0.9-0.5-1.4c0-0.4,0.1-0.9,0.3-1.3l5.6-15.5
	c0.3-1.4,1.6-2.4,3-2.4c1.5-0.1,2.8,0.9,3.2,2.4L32,34.2c0.1,0.4,0.2,0.8,0.2,1.3c0,0.5-0.2,1-0.5,1.4c-0.4,0.4-1,0.5-1.5,0.5
	c-1,0-1.7-0.6-2-1.8l-1.3-3.8h-7.2l-1.3,3.8c-0.3,1.2-1,1.8-2,1.8C15.9,37.4,15.3,37.3,14.9,36.9L14.9,36.9z M26,28.6l-2.6-8h-0.2
	l-2.6,8H26z M29.7,57.4c0.8-0.8,1.2-1.8,1.2-2.9c0-1.1-0.4-2.1-1.2-2.9c-0.8-0.8-1.8-1.2-2.9-1.2c-1.1-0.1-2.2,0.4-2.9,1.2
	c-0.8,0.8-1.2,1.8-1.2,2.9c0,1.1,0.4,2.1,1.2,2.9C25.4,59,28,59,29.7,57.4C29.6,57.4,29.6,57.4,29.7,57.4L29.7,57.4z M37.2,22.2
	c-0.4-0.4-0.7-1.1-0.7-1.7c0-0.6,0.2-1.2,0.7-1.7c0.5-0.4,1.1-0.7,1.7-0.7h11.6c0.6,0,1.2,0.2,1.7,0.7c0.4,0.4,0.7,1,0.7,1.7
	c0,0.6-0.2,1.2-0.7,1.7c-0.4,0.5-1.1,0.7-1.7,0.7H38.9C38.3,22.9,37.6,22.7,37.2,22.2L37.2,22.2z M37.2,35.5
	c-0.4-0.4-0.7-1.1-0.7-1.7c0-0.6,0.2-1.2,0.7-1.7c0.5-0.4,1.1-0.7,1.7-0.7h11.6c0.6,0,1.2,0.2,1.7,0.7c0.4,0.4,0.7,1,0.7,1.7
	c0,0.6-0.2,1.2-0.7,1.7c-0.4,0.5-1.1,0.7-1.7,0.7H38.9C38.3,36.3,37.6,36,37.2,35.5L37.2,35.5z"/>
</svg>
