<svg id="Layer_1" data-name="Layer 1" xmlns="http://www.w3.org/2000/svg" viewBox="0 0 250 250"><path d="M109.18,130.19q0-6,3-9t8.87-3h40.51c3.95,0,6.9,1,8.87,3s3,5,3,9v57.87c0,4-1,7-3,9s-4.92,3-8.87,3H121q-5.91,0-8.87-3t-3-9Zm7.65,62.14a6,6,0,0,0,4.48,1.53h39.91a5.33,5.33,0,0,0,6-5.92V130.3a5.36,5.36,0,0,0-6-6H121.31a5.36,5.36,0,0,0-6,6v57.64A6,6,0,0,0,116.83,192.33Zm5-25.94a5,5,0,0,1,1.35-3.79,5.3,5.3,0,0,1,3.8-1.28h28.57q5.12,0,5.12,5.07v18.24H158l-7.63-8.78a2.91,2.91,0,0,0-1.22-.86,4.19,4.19,0,0,0-1.41-.25,4.1,4.1,0,0,0-2.67,1.11l-7.82,6.94-3.13-2.86a3.45,3.45,0,0,0-2.32-1,3.22,3.22,0,0,0-2.26,1l-5,5.08h-2.67Zm.72-12.26a1.92,1.92,0,0,1-.53-1.43,3.67,3.67,0,0,1,.27-1.26l5.6-15.53a3.07,3.07,0,0,1,3-2.37,3.15,3.15,0,0,1,3.16,2.37l5.61,15.53a4.57,4.57,0,0,1,.23,1.26,2,2,0,0,1-.51,1.43,2.07,2.07,0,0,1-1.51.51q-1.49,0-2-1.83L134.55,149h-7.17l-1.3,3.78c-.33,1.22-1,1.83-2,1.83A2.07,2.07,0,0,1,122.57,154.13Zm11.14-8.26-2.63-8h-.23l-2.59,8Zm3.63,28.76a4,4,0,0,0,1.22-2.9,3.9,3.9,0,0,0-1.22-2.9,4.24,4.24,0,0,0-2.9-1.22,3.66,3.66,0,0,0-2.92,1.17,4.09,4.09,0,0,0-1.2,2.95,4,4,0,0,0,1.2,2.9,4.08,4.08,0,0,0,5.82,0Zm7.49-35.17a2.34,2.34,0,0,1-.66-1.68,2.28,2.28,0,0,1,.66-1.66,2.39,2.39,0,0,1,1.74-.67h11.64a2.31,2.31,0,0,1,1.69.67,2.25,2.25,0,0,1,.67,1.66,2.31,2.31,0,0,1-.67,1.68,2.25,2.25,0,0,1-1.69.69H146.57A2.33,2.33,0,0,1,144.83,139.46Zm0,13.31a2.31,2.31,0,0,1-.66-1.68,2.28,2.28,0,0,1,.66-1.66,2.38,2.38,0,0,1,1.74-.66h11.64a2.3,2.3,0,0,1,1.69.66,2.25,2.25,0,0,1,.67,1.66,2.28,2.28,0,0,1-.67,1.68,2.25,2.25,0,0,1-1.69.69H146.57A2.33,2.33,0,0,1,144.83,152.77Z"/></svg>