<svg id="Layer_1" data-name="Layer 1" xmlns="http://www.w3.org/2000/svg" viewBox="0 0 250 250"><path d="M102,128.1a4.29,4.29,0,0,1-1.37-3.15,4.49,4.49,0,0,1,1.36-3.24,4.36,4.36,0,0,1,3.24-1.39,4.57,4.57,0,0,1,0,9.14A4.49,4.49,0,0,1,102,128.1Zm13.45,7.54a5,5,0,0,1,1-2,12.18,12.18,0,0,0,2.11-4,15.18,15.18,0,0,0,.71-4.65,15,15,0,0,0-.72-4.65,12.59,12.59,0,0,0-2.1-4,5.81,5.81,0,0,1-.94-2,2,2,0,0,1,.54-1.85,2.51,2.51,0,0,1,4,.22,18.59,18.59,0,0,1,3.19,5.67,19.81,19.81,0,0,1,0,13.19,19,19,0,0,1-3.19,5.68,2.56,2.56,0,0,1-4,.22A2,2,0,0,1,115.44,135.64Zm8.73,8.89a4,4,0,0,1,1-2,25,25,0,0,0,4.85-8,26.74,26.74,0,0,0,1.69-9.53,27.3,27.3,0,0,0-1.67-9.56,24.24,24.24,0,0,0-4.87-8,4,4,0,0,1-1-2,2.2,2.2,0,0,1,.58-1.88,2.38,2.38,0,0,1,1.91-.86,2.76,2.76,0,0,1,2.06,1,29.11,29.11,0,0,1,4.42,6.18,30.87,30.87,0,0,1,2.75,7.2,32.55,32.55,0,0,1,.94,7.87,31.77,31.77,0,0,1-2.11,11.55,30.32,30.32,0,0,1-6,9.71,2.75,2.75,0,0,1-2.06,1,2.32,2.32,0,0,1-1.91-.86A2.24,2.24,0,0,1,124.17,144.53Zm9,8.36a3.47,3.47,0,0,1,1-2,36,36,0,0,0,7.48-11.74A38,38,0,0,0,144.28,125a38.64,38.64,0,0,0-2.6-14.21,34.85,34.85,0,0,0-7.51-11.74,3.3,3.3,0,0,1-1-1.94,2.34,2.34,0,0,1,.6-1.88,2.53,2.53,0,0,1,1.84-.82,2.58,2.58,0,0,1,2,.89,41.27,41.27,0,0,1,8.65,13.47,44.53,44.53,0,0,1,0,32.42,42.43,42.43,0,0,1-8.64,13.49,2.71,2.71,0,0,1-2,.91,2.48,2.48,0,0,1-1.84-.85A2.3,2.3,0,0,1,133.2,152.89Z"/></svg>